<svg xmlns="http://www.w3.org/2000/svg" width="256" height="256" viewBox="0 0 256 256">
  <defs>
    <linearGradient id="bg" x1="0%" y1="0%" x2="100%" y2="100%">
      <stop offset="0%" stop-color="#4facfe"/>
      <stop offset="100%" stop-color="#00f2fe"/>
    </linearGradient>
    <filter id="shadow">
      <feDropShadow dx="0" dy="2" stdDeviation="3" flood-opacity="0.15"/>
    </filter>
  </defs>
  <rect width="256" height="256" rx="48" fill="url(#bg)"/>
  <circle cx="95" cy="105" r="38" fill="#FFD700" filter="url(#shadow)"/>
  <circle cx="95" cy="105" r="28" fill="#FFF8C0"/>
  <g stroke="#FFD700" stroke-width="5" stroke-linecap="round" opacity="0.8">
    <line x1="95" y1="52" x2="95" y2="62"/>
    <line x1="95" y1="148" x2="95" y2="158"/>
    <line x1="52" y1="105" x2="62" y2="105"/>
    <line x1="128" y1="105" x2="138" y2="105"/>
    <line x1="64" y1="74" x2="72" y2="82"/>
    <line x1="118" y1="128" x2="126" y2="136"/>
    <line x1="64" y1="128" x2="72" y2="136"/>
    <line x1="118" y1="74" x2="126" y2="82"/>
  </g>
  <ellipse cx="155" cy="140" rx="52" ry="28" fill="white" opacity="0.95" filter="url(#shadow)"/>
  <ellipse cx="130" cy="130" rx="38" ry="24" fill="white" opacity="0.95"/>
  <ellipse cx="178" cy="130" rx="38" ry="24" fill="white" opacity="0.95"/>
  <g stroke="#5bbbf5" stroke-width="3" stroke-linecap="round">
    <line x1="132" y1="158" x2="132" y2="175"/>
    <line x1="150" y1="156" x2="150" y2="173"/>
    <line x1="168" y1="158" x2="168" y2="175"/>
    <line x1="186" y1="156" x2="186" y2="173"/>
  </g>
</svg>